<?xml version="1.0" encoding="UTF-8"?>
<!DOCTYPE svg PUBLIC "-//W3C//DTD SVG 1.1//EN" "http://www.w3.org/Graphics/SVG/1.1/DTD/svg11.dtd">
<svg xmlns="http://www.w3.org/2000/svg" version="1.1" width="500px" height="500px" style="shape-rendering:geometricPrecision; text-rendering:geometricPrecision; image-rendering:optimizeQuality; fill-rule:evenodd; clip-rule:evenodd" xmlns:xlink="http://www.w3.org/1999/xlink">
<g><path style="opacity:1" fill="#0dbf64" d="M 323.5,103.5 C 323.821,105.048 324.821,105.715 326.5,105.5C 345.86,115.2 362.194,128.534 375.5,145.5C 375.427,147.027 376.094,148.027 377.5,148.5C 391.368,165.569 401.034,184.902 406.5,206.5C 406.41,209.152 407.076,211.485 408.5,213.5C 421.47,288.826 396.47,347.659 333.5,390C 292.824,412.793 249.824,418.46 204.5,407C 188.695,402.356 174.028,395.522 160.5,386.5C 160.027,385.094 159.027,384.427 157.5,384.5C 117.807,357.15 94.3074,319.483 87,271.5C 81.1455,223.934 93.3122,181.934 123.5,145.5C 124.906,145.027 125.573,144.027 125.5,142.5C 128.5,138.833 131.833,135.5 135.5,132.5C 139.436,130.234 142.769,127.234 145.5,123.5C 146.262,121.738 147.596,120.738 149.5,120.5C 151.749,119.92 153.415,118.587 154.5,116.5C 185.109,94.5826 219.442,84.416 257.5,86C 280.792,87.1556 302.792,92.9889 323.5,103.5 Z M 304.5,262.5 C 302.973,262.427 301.973,263.094 301.5,264.5C 297.659,266.261 294.326,268.761 291.5,272C 298.044,291.298 304.377,310.632 310.5,330C 308.724,337.25 304.391,339.583 297.5,337C 282.322,326.244 267.322,315.244 252.5,304C 250.756,302.546 249.089,302.379 247.5,303.5C 245.596,303.738 244.262,304.738 243.5,306.5C 240.437,308.025 237.77,310.025 235.5,312.5C 233.973,312.427 232.973,313.094 232.5,314.5C 222.382,321.402 212.382,328.569 202.5,336C 200.091,337.707 197.425,338.54 194.5,338.5C 193.71,337.599 192.71,336.932 191.5,336.5C 188.697,333.796 187.863,330.463 189,326.5C 194.738,308.453 200.571,290.453 206.5,272.5C 201.777,267.446 196.443,263.113 190.5,259.5C 189.71,258.599 188.71,257.932 187.5,257.5C 177.607,250.298 167.774,242.964 158,235.5C 154.347,228.954 156.18,224.454 163.5,222C 183.508,221.833 203.508,221.333 223.5,220.5C 229.839,202.651 235.672,184.651 241,166.5C 245.908,159.014 251.241,158.681 257,165.5C 262.747,184.237 268.58,202.904 274.5,221.5C 294.503,221.333 314.503,221.5 334.5,222C 342.318,224.79 343.984,229.623 339.5,236.5C 327.587,244.944 315.92,253.61 304.5,262.5 Z"/></g>
<g><path style="opacity:1" fill="#98e2b3" d="M 323.5,103.5 C 324.71,103.932 325.71,104.599 326.5,105.5C 324.821,105.715 323.821,105.048 323.5,103.5 Z"/></g>
<g><path style="opacity:0.816" fill="#7cdba4" d="M 154.5,116.5 C 153.415,118.587 151.749,119.92 149.5,120.5C 150.585,118.413 152.251,117.08 154.5,116.5 Z"/></g>
<g><path style="opacity:1" fill="#65d391" d="M 145.5,123.5 C 142.769,127.234 139.436,130.234 135.5,132.5C 138.231,128.766 141.564,125.766 145.5,123.5 Z"/></g>
<g><path style="opacity:0.757" fill="#9fe6be" d="M 125.5,142.5 C 125.573,144.027 124.906,145.027 123.5,145.5C 123.427,143.973 124.094,142.973 125.5,142.5 Z"/></g>
<g><path style="opacity:0.82" fill="#9ae4ba" d="M 375.5,145.5 C 376.906,145.973 377.573,146.973 377.5,148.5C 376.094,148.027 375.427,147.027 375.5,145.5 Z"/></g>
<g><path style="opacity:1" fill="#7fdba6" d="M 406.5,206.5 C 407.924,208.515 408.59,210.848 408.5,213.5C 407.076,211.485 406.41,209.152 406.5,206.5 Z"/></g>
<g><path style="opacity:1" fill="#97e1b3" d="M 187.5,257.5 C 188.71,257.932 189.71,258.599 190.5,259.5C 188.821,259.715 187.821,259.048 187.5,257.5 Z"/></g>
<g><path style="opacity:0.659" fill="#9ae4bc" d="M 304.5,262.5 C 304.027,263.906 303.027,264.573 301.5,264.5C 301.973,263.094 302.973,262.427 304.5,262.5 Z"/></g>
<g><path style="opacity:0.659" fill="#93e2b7" d="M 247.5,303.5 C 246.738,305.262 245.404,306.262 243.5,306.5C 244.262,304.738 245.596,303.738 247.5,303.5 Z"/></g>
<g><path style="opacity:0.729" fill="#92e2b6" d="M 235.5,312.5 C 235.027,313.906 234.027,314.573 232.5,314.5C 232.973,313.094 233.973,312.427 235.5,312.5 Z"/></g>
<g><path style="opacity:0.91" fill="#9ee4b9" d="M 191.5,336.5 C 192.71,336.932 193.71,337.599 194.5,338.5C 192.821,338.715 191.821,338.048 191.5,336.5 Z"/></g>
<g><path style="opacity:0.706" fill="#a3e7c2" d="M 157.5,384.5 C 159.027,384.427 160.027,385.094 160.5,386.5C 158.973,386.573 157.973,385.906 157.5,384.5 Z"/></g>
</svg>
